<mxfile host="app.diagrams.net" agent="Mozilla/5.0 (Windows NT 10.0; Win64; x64) AppleWebKit/537.36 (KHTML, like Gecko) Chrome/132.0.0.0 Safari/537.36" version="26.0.11">
  <diagram name="Page-1" id="QCp6UtUm4TMrUxZl3Vsu">
    <mxGraphModel dx="521" dy="618" grid="1" gridSize="10" guides="1" tooltips="1" connect="1" arrows="1" fold="1" page="1" pageScale="1" pageWidth="850" pageHeight="1100" math="0" shadow="0">
      <root>
        <mxCell id="0" />
        <mxCell id="1" parent="0" />
        <mxCell id="OKQ0TkXoXM1CddIEcsKx-2" style="edgeStyle=orthogonalEdgeStyle;rounded=0;orthogonalLoop=1;jettySize=auto;html=1;exitX=0.5;exitY=1;exitDx=0;exitDy=0;" edge="1" parent="1" source="OKQ0TkXoXM1CddIEcsKx-1">
          <mxGeometry relative="1" as="geometry">
            <mxPoint x="205" y="160" as="targetPoint" />
          </mxGeometry>
        </mxCell>
        <mxCell id="OKQ0TkXoXM1CddIEcsKx-1" value="Start" style="ellipse;whiteSpace=wrap;html=1;" vertex="1" parent="1">
          <mxGeometry x="180" y="80" width="50" height="50" as="geometry" />
        </mxCell>
        <mxCell id="OKQ0TkXoXM1CddIEcsKx-4" style="edgeStyle=orthogonalEdgeStyle;rounded=0;orthogonalLoop=1;jettySize=auto;html=1;exitX=0.5;exitY=1;exitDx=0;exitDy=0;" edge="1" parent="1" source="OKQ0TkXoXM1CddIEcsKx-3" target="OKQ0TkXoXM1CddIEcsKx-5">
          <mxGeometry relative="1" as="geometry">
            <mxPoint x="205" y="270" as="targetPoint" />
          </mxGeometry>
        </mxCell>
        <mxCell id="OKQ0TkXoXM1CddIEcsKx-3" value="Login/Locate Dashboard" style="shape=process;whiteSpace=wrap;html=1;backgroundOutline=1;" vertex="1" parent="1">
          <mxGeometry x="145" y="160" width="120" height="60" as="geometry" />
        </mxCell>
        <mxCell id="OKQ0TkXoXM1CddIEcsKx-6" style="edgeStyle=orthogonalEdgeStyle;rounded=0;orthogonalLoop=1;jettySize=auto;html=1;" edge="1" parent="1" source="OKQ0TkXoXM1CddIEcsKx-5" target="OKQ0TkXoXM1CddIEcsKx-7">
          <mxGeometry relative="1" as="geometry">
            <mxPoint x="205" y="400" as="targetPoint" />
          </mxGeometry>
        </mxCell>
        <mxCell id="OKQ0TkXoXM1CddIEcsKx-5" value="Navigate to Search/Explore bar (Preferably visible on dashboard)" style="rounded=1;whiteSpace=wrap;html=1;" vertex="1" parent="1">
          <mxGeometry x="145" y="280" width="120" height="60" as="geometry" />
        </mxCell>
        <mxCell id="OKQ0TkXoXM1CddIEcsKx-10" style="edgeStyle=orthogonalEdgeStyle;rounded=0;orthogonalLoop=1;jettySize=auto;html=1;exitX=1;exitY=0.5;exitDx=0;exitDy=0;" edge="1" parent="1" source="OKQ0TkXoXM1CddIEcsKx-7">
          <mxGeometry relative="1" as="geometry">
            <mxPoint x="320" y="420" as="targetPoint" />
          </mxGeometry>
        </mxCell>
        <mxCell id="OKQ0TkXoXM1CddIEcsKx-7" value="Input desired friend&#39;s tag, name, or nickname" style="rounded=1;whiteSpace=wrap;html=1;" vertex="1" parent="1">
          <mxGeometry x="145" y="390" width="120" height="60" as="geometry" />
        </mxCell>
        <mxCell id="OKQ0TkXoXM1CddIEcsKx-13" style="edgeStyle=orthogonalEdgeStyle;rounded=0;orthogonalLoop=1;jettySize=auto;html=1;" edge="1" parent="1" source="OKQ0TkXoXM1CddIEcsKx-11">
          <mxGeometry relative="1" as="geometry">
            <mxPoint x="375" y="230" as="targetPoint" />
          </mxGeometry>
        </mxCell>
        <mxCell id="OKQ0TkXoXM1CddIEcsKx-17" value="Yes" style="edgeLabel;html=1;align=center;verticalAlign=middle;resizable=0;points=[];" vertex="1" connectable="0" parent="OKQ0TkXoXM1CddIEcsKx-13">
          <mxGeometry x="0.0416" y="-4" relative="1" as="geometry">
            <mxPoint as="offset" />
          </mxGeometry>
        </mxCell>
        <mxCell id="OKQ0TkXoXM1CddIEcsKx-14" style="edgeStyle=orthogonalEdgeStyle;rounded=0;orthogonalLoop=1;jettySize=auto;html=1;exitX=0.5;exitY=1;exitDx=0;exitDy=0;" edge="1" parent="1" source="OKQ0TkXoXM1CddIEcsKx-15">
          <mxGeometry relative="1" as="geometry">
            <mxPoint x="70" y="430" as="targetPoint" />
            <Array as="points">
              <mxPoint x="230" y="580" />
            </Array>
          </mxGeometry>
        </mxCell>
        <mxCell id="OKQ0TkXoXM1CddIEcsKx-11" value="Does User Exist?" style="rhombus;whiteSpace=wrap;html=1;" vertex="1" parent="1">
          <mxGeometry x="325" y="375" width="100" height="90" as="geometry" />
        </mxCell>
        <mxCell id="OKQ0TkXoXM1CddIEcsKx-16" value="" style="edgeStyle=orthogonalEdgeStyle;rounded=0;orthogonalLoop=1;jettySize=auto;html=1;exitX=0.5;exitY=1;exitDx=0;exitDy=0;" edge="1" parent="1" source="OKQ0TkXoXM1CddIEcsKx-11" target="OKQ0TkXoXM1CddIEcsKx-15">
          <mxGeometry relative="1" as="geometry">
            <mxPoint x="90" y="450" as="targetPoint" />
            <mxPoint x="375" y="465" as="sourcePoint" />
            <Array as="points">
              <mxPoint x="375" y="530" />
            </Array>
          </mxGeometry>
        </mxCell>
        <mxCell id="OKQ0TkXoXM1CddIEcsKx-18" value="No" style="edgeLabel;html=1;align=center;verticalAlign=middle;resizable=0;points=[];" vertex="1" connectable="0" parent="OKQ0TkXoXM1CddIEcsKx-16">
          <mxGeometry x="-0.3307" y="-1" relative="1" as="geometry">
            <mxPoint as="offset" />
          </mxGeometry>
        </mxCell>
        <mxCell id="OKQ0TkXoXM1CddIEcsKx-15" value="User/Page not found display message" style="rounded=1;whiteSpace=wrap;html=1;" vertex="1" parent="1">
          <mxGeometry x="170" y="500" width="120" height="60" as="geometry" />
        </mxCell>
        <mxCell id="OKQ0TkXoXM1CddIEcsKx-21" value="" style="endArrow=classic;html=1;rounded=0;" edge="1" parent="1">
          <mxGeometry width="50" height="50" relative="1" as="geometry">
            <mxPoint x="70" y="430" as="sourcePoint" />
            <mxPoint x="140" y="430" as="targetPoint" />
          </mxGeometry>
        </mxCell>
        <mxCell id="OKQ0TkXoXM1CddIEcsKx-23" style="edgeStyle=orthogonalEdgeStyle;rounded=0;orthogonalLoop=1;jettySize=auto;html=1;" edge="1" parent="1" source="OKQ0TkXoXM1CddIEcsKx-22">
          <mxGeometry relative="1" as="geometry">
            <mxPoint x="470" y="100" as="targetPoint" />
            <Array as="points">
              <mxPoint x="380" y="136" />
              <mxPoint x="381" y="136" />
              <mxPoint x="381" y="100" />
            </Array>
          </mxGeometry>
        </mxCell>
        <mxCell id="OKQ0TkXoXM1CddIEcsKx-22" value="Return potential match list with add options" style="rounded=1;whiteSpace=wrap;html=1;" vertex="1" parent="1">
          <mxGeometry x="325" y="180" width="105" height="50" as="geometry" />
        </mxCell>
        <mxCell id="OKQ0TkXoXM1CddIEcsKx-26" style="edgeStyle=orthogonalEdgeStyle;rounded=0;orthogonalLoop=1;jettySize=auto;html=1;exitX=0.5;exitY=1;exitDx=0;exitDy=0;" edge="1" parent="1" source="OKQ0TkXoXM1CddIEcsKx-25">
          <mxGeometry relative="1" as="geometry">
            <mxPoint x="520" y="280" as="targetPoint" />
          </mxGeometry>
        </mxCell>
        <mxCell id="OKQ0TkXoXM1CddIEcsKx-29" value="Yes" style="edgeLabel;html=1;align=center;verticalAlign=middle;resizable=0;points=[];" vertex="1" connectable="0" parent="OKQ0TkXoXM1CddIEcsKx-26">
          <mxGeometry x="-0.2709" y="-3" relative="1" as="geometry">
            <mxPoint as="offset" />
          </mxGeometry>
        </mxCell>
        <mxCell id="OKQ0TkXoXM1CddIEcsKx-31" style="edgeStyle=orthogonalEdgeStyle;rounded=0;orthogonalLoop=1;jettySize=auto;html=1;" edge="1" parent="1" source="OKQ0TkXoXM1CddIEcsKx-25">
          <mxGeometry relative="1" as="geometry">
            <mxPoint x="630" y="570" as="targetPoint" />
          </mxGeometry>
        </mxCell>
        <mxCell id="OKQ0TkXoXM1CddIEcsKx-33" value="No" style="edgeLabel;html=1;align=center;verticalAlign=middle;resizable=0;points=[];" vertex="1" connectable="0" parent="OKQ0TkXoXM1CddIEcsKx-31">
          <mxGeometry x="-0.4364" y="-2" relative="1" as="geometry">
            <mxPoint as="offset" />
          </mxGeometry>
        </mxCell>
        <mxCell id="OKQ0TkXoXM1CddIEcsKx-25" value="Add friend?" style="rhombus;whiteSpace=wrap;html=1;" vertex="1" parent="1">
          <mxGeometry x="480" y="65" width="80" height="80" as="geometry" />
        </mxCell>
        <mxCell id="OKQ0TkXoXM1CddIEcsKx-34" style="edgeStyle=orthogonalEdgeStyle;rounded=0;orthogonalLoop=1;jettySize=auto;html=1;" edge="1" parent="1" source="OKQ0TkXoXM1CddIEcsKx-27">
          <mxGeometry relative="1" as="geometry">
            <mxPoint x="520" y="390" as="targetPoint" />
          </mxGeometry>
        </mxCell>
        <mxCell id="OKQ0TkXoXM1CddIEcsKx-27" value="Send friend request/message/notif to other User" style="rounded=1;whiteSpace=wrap;html=1;" vertex="1" parent="1">
          <mxGeometry x="460" y="280" width="120" height="60" as="geometry" />
        </mxCell>
        <mxCell id="OKQ0TkXoXM1CddIEcsKx-32" value="" style="endArrow=classic;html=1;rounded=0;" edge="1" parent="1">
          <mxGeometry width="50" height="50" relative="1" as="geometry">
            <mxPoint x="630" y="570" as="sourcePoint" />
            <mxPoint x="240" y="580" as="targetPoint" />
          </mxGeometry>
        </mxCell>
        <mxCell id="OKQ0TkXoXM1CddIEcsKx-37" value="" style="edgeStyle=orthogonalEdgeStyle;rounded=0;orthogonalLoop=1;jettySize=auto;html=1;" edge="1" parent="1" source="OKQ0TkXoXM1CddIEcsKx-35" target="OKQ0TkXoXM1CddIEcsKx-36">
          <mxGeometry relative="1" as="geometry" />
        </mxCell>
        <mxCell id="OKQ0TkXoXM1CddIEcsKx-35" value="Other user approves" style="shape=process;whiteSpace=wrap;html=1;backgroundOutline=1;" vertex="1" parent="1">
          <mxGeometry x="460" y="375" width="120" height="60" as="geometry" />
        </mxCell>
        <mxCell id="OKQ0TkXoXM1CddIEcsKx-36" value="Done!" style="ellipse;whiteSpace=wrap;html=1;aspect=fixed;" vertex="1" parent="1">
          <mxGeometry x="750" y="480" width="50" height="50" as="geometry" />
        </mxCell>
        <mxCell id="OKQ0TkXoXM1CddIEcsKx-38" value="Other user gets added to friends list and gains friend permissions (message, tags, etc)" style="rounded=1;whiteSpace=wrap;html=1;" vertex="1" parent="1">
          <mxGeometry x="640" y="375" width="120" height="95" as="geometry" />
        </mxCell>
      </root>
    </mxGraphModel>
  </diagram>
</mxfile>
